<svg width="113" height="113" viewBox="0 0 113 113" fill="none" xmlns="http://www.w3.org/2000/svg">
<circle cx="56.5" cy="56.5" r="56.5" fill="#71C8B0"/>
<path d="M81.8 32H32.2C28.79 32 26.031 34.8125 26.031 38.25L26 75.75C26 79.1875 28.79 82 32.2 82H81.8C85.21 82 88 79.1875 88 75.75V38.25C88 34.8125 85.21 32 81.8 32ZM80.56 45.2812L58.643 59.0938C57.651 59.7188 56.349 59.7188 55.357 59.0938L33.44 45.2812C33.1292 45.1053 32.8569 44.8677 32.6399 44.5827C32.4228 44.2976 32.2653 43.9712 32.177 43.623C32.0887 43.2749 32.0714 42.9123 32.1261 42.5572C32.1808 42.2021 32.3064 41.8619 32.4954 41.5572C32.6843 41.2525 32.9326 40.9895 33.2253 40.7844C33.5179 40.5792 33.8488 40.436 34.1979 40.3634C34.5471 40.2909 34.9072 40.2905 35.2565 40.3623C35.6057 40.4342 35.9369 40.5767 36.23 40.7812L57 53.875L77.77 40.7812C78.0631 40.5767 78.3943 40.4342 78.7435 40.3623C79.0928 40.2905 79.4529 40.2909 79.8021 40.3634C80.1512 40.436 80.4821 40.5792 80.7747 40.7844C81.0674 40.9895 81.3157 41.2525 81.5046 41.5572C81.6936 41.8619 81.8192 42.2021 81.8739 42.5572C81.9286 42.9123 81.9113 43.2749 81.823 43.623C81.7347 43.9712 81.5772 44.2976 81.3601 44.5827C81.1431 44.8677 80.8708 45.1053 80.56 45.2812Z" fill="black"/>
</svg>
