<svg width="113" height="113" viewBox="0 0 113 113" fill="none" xmlns="http://www.w3.org/2000/svg">
<circle cx="56.5" cy="56.5" r="56.5" fill="#71C8B0"/>
<path d="M86.8767 33.5866L78.2173 24.9352C77.6064 24.3216 76.8804 23.8348 76.0808 23.5027C75.2813 23.1706 74.424 22.9998 73.5582 23C71.7938 23 70.1351 23.6911 68.8911 24.9352L59.573 34.2534C58.9595 34.8643 58.4727 35.5903 58.1406 36.3899C57.8085 37.1894 57.6376 38.0467 57.6378 38.9125C57.6378 40.6769 58.329 42.3357 59.573 43.5797L66.3867 50.3936C64.7918 53.9091 62.5743 57.1073 59.8413 59.8337C57.1152 62.5734 53.9173 64.799 50.4013 66.4036L43.5876 59.5898C42.9767 58.9763 42.2507 58.4895 41.4511 58.1574C40.6516 57.8253 39.7943 57.6544 38.9285 57.6546C37.1641 57.6546 35.5054 58.3457 34.2614 59.5898L24.9352 68.8999C24.3209 69.5119 23.8337 70.2393 23.5016 71.0403C23.1694 71.8412 22.999 72.7 23 73.5671C23 75.3316 23.6911 76.9903 24.9352 78.2343L33.5784 86.8777C35.5623 88.8698 38.3024 90 41.1158 90C41.7093 90 42.2785 89.9512 42.8395 89.8536C53.8 88.0485 64.6711 82.2186 73.4444 73.4533C82.2096 64.6961 88.0313 53.833 89.8608 42.8398C90.4137 39.4817 89.2997 36.026 86.8767 33.5866Z" fill="black"/>
</svg>
